# xmcd
#
# Track frame offsets: 
#        150
#        18805
#        32177
#        50900
#        67625
#        82867
#        100607
#        118532
#        131760
#        146790
#        158395
#        171035
#
# Disc length: 2502 seconds
#
# Revision: 2
# Processed by: cddbd v1.5.2PL0 Copyright (c) Steve Scherf et al.
# Submitted via: ExactAudioCopy v1.3
#
DISCID=8e09c40c
DTITLE=Carpenters - The Singles 1969-1973
DYEAR=1973
DGENRE=Rock
TTITLE0=We've Only Just Begun
TTITLE1=Top of the World
TTITLE2=Ticket to Ride
TTITLE3=Superstar
TTITLE4=Rainy Days and Mondays
TTITLE5=Goodbye to Love
TTITLE6=Yesterday Once More
TTITLE7=It's Going to Take Some Time
TTITLE8=Sing
TTITLE9=For All We Know
TTITLE10=Hurting Each Other
TTITLE11=(They Long to Be) Close to You
EXTD=
EXTT0=
EXTT1=
EXTT2=
EXTT3=
EXTT4=
EXTT5=
EXTT6=
EXTT7=
EXTT8=
EXTT9=
EXTT10=
EXTT11=
PLAYORDER=
